<svg xmlns="http://www.w3.org/2000/svg" viewBox="0 0 96 96" role="img" aria-label="Kaguya styled avatar">
  <defs>
    <linearGradient id="bg" x1="10" y1="4" x2="88" y2="92" gradientUnits="userSpaceOnUse">
      <stop stop-color="#fff7fb"/>
      <stop offset="1" stop-color="#d9f1df"/>
    </linearGradient>
    <linearGradient id="hair" x1="22" y1="12" x2="73" y2="84" gradientUnits="userSpaceOnUse">
      <stop stop-color="#232323"/>
      <stop offset="1" stop-color="#070707"/>
    </linearGradient>
  </defs>
  <rect width="96" height="96" rx="28" fill="url(#bg)"/>
  <path d="M23 80c2-31 1-55 25-62 25 7 24 31 25 62-12 6-38 6-50 0z" fill="url(#hair)"/>
  <path d="M29 48c1-16 8-25 19-25s18 9 19 25c1 21-8 32-19 32S28 69 29 48z" fill="#ffe7dd"/>
  <path d="M26 47c8-1 18-8 23-18 6 10 13 16 22 18-2-20-10-31-23-31S27 27 26 47z" fill="#111"/>
  <path d="M28 29c-6-10 1-18 14-12-2 9-7 13-14 12z" fill="#b7222e"/>
  <path d="M68 29c6-10-1-18-14-12 2 9 7 13 14 12z" fill="#b7222e"/>
  <circle cx="39" cy="52" r="3.4" fill="#111"/>
  <circle cx="57" cy="52" r="3.4" fill="#111"/>
  <path d="M41 66c4 3 10 3 14 0" fill="none" stroke="#9e4a43" stroke-width="3" stroke-linecap="round"/>
  <path d="M20 82c13 8 43 8 56 0" fill="#233126" opacity=".18"/>
</svg>
